<svg width="25" height="25" viewBox="0 0 25 25" fill="none" xmlns="http://www.w3.org/2000/svg">
<path d="M24.6227 14.9204C23.02 21.3491 16.5088 25.2614 10.0794 23.6583C3.65271 22.0556 -0.259633 15.5441 1.34376 9.11594C2.94574 2.68661 9.4569 -1.22603 15.8843 0.376659C22.3132 1.97935 26.2253 8.49162 24.6225 14.9206L24.6226 14.9204H24.6227Z" fill="#F7931A"/>
<path d="M18.291 10.2903C18.5299 8.6934 17.3141 7.83498 15.6516 7.26233L16.1909 5.09914L14.8741 4.77103L14.3491 6.87726C14.0029 6.79092 13.6474 6.70957 13.2941 6.62892L13.8229 4.50878L12.5069 4.18066L11.9673 6.34315C11.6808 6.27793 11.3994 6.21347 11.1265 6.14554L11.128 6.13874L9.31209 5.68528L8.9618 7.09171C8.9618 7.09171 9.93876 7.31565 9.91817 7.32943C10.4514 7.46252 10.5478 7.81551 10.5318 8.09529L9.91747 10.5597C9.95418 10.569 10.0018 10.5825 10.0544 10.6036C10.0104 10.5927 9.96369 10.5808 9.91518 10.5692L9.05407 14.0214C8.9889 14.1834 8.82349 14.4266 8.45068 14.3342C8.46388 14.3534 7.49361 14.0954 7.49361 14.0954L6.83984 15.6027L8.55345 16.0299C8.87224 16.1098 9.18463 16.1935 9.49228 16.2721L8.94737 18.4601L10.2627 18.7883L10.8023 16.6235C11.1616 16.721 11.5103 16.811 11.8517 16.8958L11.3139 19.0504L12.6307 19.3785L13.1756 17.1946C15.421 17.6196 17.1094 17.4482 17.82 15.4172C18.3927 13.7821 17.7915 12.8389 16.6102 12.2238C17.4706 12.0254 18.1187 11.4595 18.2915 10.2905L18.2911 10.2902L18.291 10.2903ZM15.2825 14.5091C14.8755 16.1443 12.1224 15.2604 11.2298 15.0387L11.9529 12.14C12.8454 12.3628 15.7078 12.8038 15.2825 14.5091H15.2825ZM15.6897 10.2666C15.3185 11.754 13.027 10.9984 12.2837 10.8131L12.9392 8.1841C13.6826 8.36939 16.0764 8.71522 15.6898 10.2666H15.6897Z" fill="white"/>
<circle cx="21" cy="20" r="4" fill="white"/>
<g clip-path="url(#clip0_6618_84287)">
<path d="M21 16C18.7909 16 17 17.7909 17 20C17 22.2091 18.7909 24 21 24C23.2091 24 25 22.2091 25 20C25 17.7909 23.2091 16 21 16ZM23.777 20.2986C23.777 20.4908 23.7409 20.6723 23.6681 20.8428C23.5955 21.0138 23.4959 21.1628 23.3695 21.2892C23.2431 21.4156 23.0942 21.515 22.9231 21.5878C22.7522 21.6605 22.5709 21.6967 22.3789 21.6967H19.7088C19.4931 21.6967 19.2908 21.6556 19.1008 21.5741C18.9111 21.492 18.745 21.3795 18.602 21.2366C18.4591 21.0936 18.3466 20.9275 18.2648 20.7378C18.1828 20.5481 18.1417 20.3455 18.1417 20.1298V19.3058L19.1522 19.1027V18.6286H21.0128V19.577H19.3545C19.2473 19.577 19.1605 19.6639 19.1605 19.7711V20.0595C19.1605 20.1814 19.2039 20.2858 19.2908 20.3723C19.3773 20.4592 19.4813 20.5023 19.6031 20.5023H22.5617C22.6178 20.5023 22.6645 20.4825 22.7022 20.4427C22.7395 20.4028 22.7583 20.3573 22.7583 20.3058V18.8317L23.777 18.6286V20.2987V20.2986Z" fill="#07A67F"/>
</g>
<defs>
<clipPath id="clip0_6618_84287">
<rect width="8" height="8" fill="white" transform="translate(17 16)"/>
</clipPath>
</defs>
</svg>
