<svg width="22" height="22" viewBox="0 0 22 22" fill="none" xmlns="http://www.w3.org/2000/svg">
<g clip-path="url(#clip0_6536_84002)">
<path d="M20.1667 11.9167C20.1667 11.552 20.0218 11.2023 19.7639 10.9444C19.5061 10.6865 19.1563 10.5417 18.7917 10.5417V7.79167C18.7917 5.72519 17.9708 3.74335 16.5095 2.28213C15.0483 0.820905 13.0665 0 11 0C8.93352 0 6.95168 0.820905 5.49046 2.28213C4.02924 3.74335 3.20833 5.72519 3.20833 7.79167V10.5417C2.84366 10.5417 2.49392 10.6865 2.23606 10.9444C1.9782 11.2023 1.83333 11.552 1.83333 11.9167C1.3471 11.9167 0.880788 12.1098 0.536971 12.4536C0.193154 12.7975 0 13.2638 0 13.75C0 14.2362 0.193154 14.7025 0.536971 15.0464C0.880788 15.3902 1.3471 15.5833 1.83333 15.5833C1.83333 15.948 1.9782 16.2977 2.23606 16.5556C2.49392 16.8135 2.84366 16.9583 3.20833 16.9583H5.04167C5.16322 16.9583 5.2798 16.91 5.36576 16.8241C5.45171 16.7381 5.5 16.6216 5.5 16.5V11C5.5 10.8784 5.45171 10.7619 5.36576 10.6759C5.2798 10.59 5.16322 10.5417 5.04167 10.5417H4.125V7.79167C4.125 5.9683 4.84933 4.21962 6.13864 2.93031C7.42795 1.64099 9.17664 0.916667 11 0.916667C12.8234 0.916667 14.572 1.64099 15.8614 2.93031C17.1507 4.21962 17.875 5.9683 17.875 7.79167V10.5417H16.9583C16.8368 10.5417 16.7202 10.59 16.6342 10.6759C16.5483 10.7619 16.5 10.8784 16.5 11V16.5C16.5 16.6216 16.5483 16.7381 16.6342 16.8241C16.7202 16.91 16.8368 16.9583 16.9583 16.9583H17.875V17.875C17.875 18.4828 17.6336 19.0657 17.2038 19.4955C16.774 19.9252 16.1911 20.1667 15.5833 20.1667H13.2092C13.1146 19.8992 12.9396 19.6675 12.7082 19.5034C12.4768 19.3393 12.2003 19.2508 11.9167 19.25H10.0833C9.71866 19.25 9.36892 19.3949 9.11106 19.6527C8.8532 19.9106 8.70833 20.2603 8.70833 20.625C8.70833 20.9897 8.8532 21.3394 9.11106 21.5973C9.36892 21.8551 9.71866 22 10.0833 22H11.9167C12.2003 21.9992 12.4768 21.9107 12.7082 21.7466C12.9396 21.5825 13.1146 21.3508 13.2092 21.0833H15.5833C16.4342 21.0833 17.2503 20.7453 17.852 20.1436C18.4536 19.542 18.7917 18.7259 18.7917 17.875V16.9583C19.1563 16.9583 19.5061 16.8135 19.7639 16.5556C20.0218 16.2977 20.1667 15.948 20.1667 15.5833C20.6529 15.5833 21.1192 15.3902 21.463 15.0464C21.8068 14.7025 22 14.2362 22 13.75C22 13.2638 21.8068 12.7975 21.463 12.4536C21.1192 12.1098 20.6529 11.9167 20.1667 11.9167ZM0.916667 13.75C0.916667 13.5069 1.01324 13.2737 1.18515 13.1018C1.35706 12.9299 1.59022 12.8333 1.83333 12.8333V14.6667C1.59022 14.6667 1.35706 14.5701 1.18515 14.3982C1.01324 14.2263 0.916667 13.9931 0.916667 13.75ZM4.58333 16.0417H3.20833C3.08678 16.0417 2.9702 15.9934 2.88424 15.9074C2.79829 15.8215 2.75 15.7049 2.75 15.5833V11.9167C2.75 11.7951 2.79829 11.6785 2.88424 11.5926C2.9702 11.5066 3.08678 11.4583 3.20833 11.4583H4.58333V16.0417ZM11.9167 21.0833H10.0833C9.96178 21.0833 9.8452 21.035 9.75924 20.9491C9.67329 20.8631 9.625 20.7466 9.625 20.625C9.625 20.5034 9.67329 20.3869 9.75924 20.3009C9.8452 20.215 9.96178 20.1667 10.0833 20.1667H11.9167C12.0382 20.1667 12.1548 20.215 12.2408 20.3009C12.3267 20.3869 12.375 20.5034 12.375 20.625C12.375 20.7466 12.3267 20.8631 12.2408 20.9491C12.1548 21.035 12.0382 21.0833 11.9167 21.0833ZM19.25 15.5833C19.25 15.7049 19.2017 15.8215 19.1158 15.9074C19.0298 15.9934 18.9132 16.0417 18.7917 16.0417H17.4167V11.4583H18.7917C18.9132 11.4583 19.0298 11.5066 19.1158 11.5926C19.2017 11.6785 19.25 11.7951 19.25 11.9167V15.5833ZM20.1667 14.6667V12.8333C20.4098 12.8333 20.6429 12.9299 20.8148 13.1018C20.9868 13.2737 21.0833 13.5069 21.0833 13.75C21.0833 13.9931 20.9868 14.2263 20.8148 14.3982C20.6429 14.5701 20.4098 14.6667 20.1667 14.6667Z" fill="white"/>
</g>
<defs>
<clipPath id="clip0_6536_84002">
<rect width="22" height="22" fill="white"/>
</clipPath>
</defs>
</svg>
