<svg width="103" height="14" viewBox="0 0 103 14" fill="none" xmlns="http://www.w3.org/2000/svg">
<g clip-path="url(#clip0_6190_151932)">
<path d="M79.0361 7H74.2451L79.0361 0H83.8272L79.0361 7ZM93.4094 7H88.6183L83.8272 14H88.6183L93.4094 7ZM98.2005 14H102.992L98.2005 7H93.4094L98.2005 14ZM74.2451 7H69.454L64.6629 14H69.454L74.2451 7ZM81.433 10.5H76.642L79.0389 14H83.8299L81.433 10.5ZM95.8063 3.5H100.61L102.998 0H98.2073L95.8063 3.5ZM69.4512 0H64.6602L68.2548 5.25H73.0459L69.4512 0ZM88.6156 0H83.8245L87.4178 5.25H92.2089L88.6156 0Z" fill="#4EF09D"/>
<path d="M52.2255 2.5494V5.0932C52.2255 5.59419 52.129 6.09028 51.9416 6.55314C51.7541 7.01599 51.4793 7.43656 51.133 7.79081C50.7866 8.14507 50.3754 8.42608 49.9228 8.6178C49.4702 8.80952 48.9852 8.9082 48.4953 8.9082H46.0081C45.089 8.90716 44.203 8.55804 43.5208 7.9282C42.8393 8.55829 41.9536 8.90748 41.0349 8.9082H33.5731C33.0832 8.90838 32.598 8.80984 32.1452 8.6182C31.6925 8.42656 31.2811 8.14558 30.9346 7.79131C30.5881 7.43703 30.3132 7.01641 30.1257 6.55346C29.9381 6.09051 29.8416 5.59431 29.8416 5.0932L33.3254 0H37.3033V2.5494H32.3302V5.0932C32.3302 5.43034 32.4612 5.75368 32.6943 5.99207C32.9274 6.23047 33.2435 6.3644 33.5731 6.3644H41.0349C41.3644 6.36403 41.6804 6.22998 41.9134 5.99166C42.1464 5.75335 42.2775 5.43023 42.2779 5.0932V2.5494H44.7624V5.0932C44.7624 5.43034 44.8933 5.75368 45.1264 5.99207C45.3595 6.23047 45.6757 6.3644 46.0053 6.3644H48.4926C48.8222 6.3644 49.1384 6.23047 49.3715 5.99207C49.6046 5.75368 49.7355 5.43034 49.7355 5.0932V2.5494H52.2255ZM57.2 1.2768V5.0932C57.1996 5.43047 57.0684 5.7538 56.8351 5.99216C56.6018 6.23052 56.2855 6.3644 55.9557 6.3644H52.2255L53.9667 8.9082H55.9557C56.9445 8.90746 57.8926 8.50519 58.5916 7.78982C59.2905 7.07445 59.6832 6.10452 59.6832 5.0932V1.2768H57.2ZM17.408 2.5494V5.0932C17.408 5.43034 17.2771 5.75368 17.044 5.99207C16.8109 6.23047 16.4948 6.3644 16.1651 6.3644H13.6778C13.3482 6.3644 13.0321 6.23047 12.799 5.99207C12.5659 5.75368 12.4349 5.43034 12.4349 5.0932V2.5494H9.94765V7.6356C9.94765 7.97287 9.81674 8.29635 9.58368 8.53497C9.35063 8.77359 9.03448 8.90783 8.70471 8.9082H3.7302C3.56686 8.9082 3.40512 8.87527 3.25423 8.8113C3.10334 8.74733 2.96626 8.65357 2.85082 8.53538C2.73538 8.41719 2.64386 8.27689 2.58147 8.1225C2.51909 7.96811 2.48707 7.80265 2.48725 7.6356V2.5494H6.21745V0H3.47969L0 5.0932V7.6356C0 8.13659 0.0964844 8.63268 0.283944 9.09554C0.471404 9.55839 0.746169 9.97896 1.09255 10.3332C1.7921 11.0487 2.74089 11.4506 3.7302 11.4506H8.70471C9.52277 11.4505 10.3181 11.1754 10.9684 10.6677C11.6186 10.16 12.0877 9.44784 12.3035 8.6408C12.7393 8.81709 13.2037 8.90781 13.6724 8.9082H16.1596C16.6495 8.9082 17.1345 8.80952 17.5871 8.6178C18.0397 8.42608 18.4509 8.14507 18.7973 7.79081C19.1437 7.43656 19.4184 7.01599 19.6059 6.55314C19.7933 6.09028 19.8898 5.59419 19.8898 5.0932V2.5494H17.408ZM12.4349 10.1794V12.7232H17.408V10.1794H12.4349ZM44.7651 10.1794V12.7232H49.7383V10.1794H44.7651ZM54.7128 10.1794V12.7232H58.443V10.1794H54.7128ZM22.3826 10.1794V12.7232H24.8698V14H27.3557V10.1794H22.3826ZM24.8698 1.2768V5.0932C24.8694 5.43047 24.7382 5.7538 24.5049 5.99216C24.2716 6.23052 23.9553 6.3644 23.6255 6.3644H19.8953L21.6365 8.9082H23.6255C24.1154 8.9082 24.6004 8.80952 25.053 8.6178C25.5056 8.42608 25.9168 8.14507 26.2631 7.79081C26.6095 7.43656 26.8843 7.01599 27.0718 6.55314C27.2592 6.09028 27.3557 5.59419 27.3557 5.0932V1.2768H24.8698Z" fill="#D8D8D8"/>
</g>
<defs>
<clipPath id="clip0_6190_151932">
<rect width="103" height="14" fill="white"/>
</clipPath>
</defs>
</svg>
