<svg width="24" height="24" viewBox="0 0 24 24" fill="none" xmlns="http://www.w3.org/2000/svg">
<g clip-path="url(#clip0_6533_83974)">
<g clip-path="url(#clip1_6533_83974)">
<path d="M22.6992 10.5048C22.7992 11.0048 22.7992 11.5048 22.7992 12.0048C22.7992 18.0048 17.9992 22.8048 11.9992 22.8048C5.99922 22.8048 1.19922 18.0048 1.19922 12.0048C1.19922 6.00483 5.99922 1.20483 11.9992 1.20483C12.3992 1.20483 12.7992 1.20483 13.1992 1.30483" stroke="#D8D8D8" stroke-width="1.5" stroke-miterlimit="10" stroke-linecap="round" stroke-linejoin="round"/>
<path d="M21.5491 7.31135C22.4626 5.86344 21.8023 3.80574 20.0741 2.71536C18.346 1.62497 16.2044 1.9148 15.2909 3.36271C14.3773 4.81061 15.0377 6.86831 16.7658 7.9587C18.494 9.04908 20.6355 8.75925 21.5491 7.31135Z" stroke="#D8D8D8" stroke-width="1.5" stroke-miterlimit="10" stroke-linecap="round" stroke-linejoin="round"/>
<path d="M17.7024 9.00508C17.7024 9.00508 17.4024 9.40508 16.4024 10.9051C14.4024 13.7051 10.0024 10.0051 12.9024 7.60508C14.1024 6.60508 14.6024 6.20508 14.6024 6.20508" stroke="#D8D8D8" stroke-width="1.5" stroke-miterlimit="10" stroke-linecap="round" stroke-linejoin="round"/>
<path d="M10.8016 15.805L6.30158 18.305C6.20158 18.405 6.10158 18.305 6.20158 18.205L8.50158 13.905" stroke="#D8D8D8" stroke-width="1.5" stroke-miterlimit="10" stroke-linecap="round" stroke-linejoin="round"/>
<path d="M17.7 9.10485C18.6 10.7049 18.7 12.7049 17.7 14.2049C16.2 16.6049 12.7999 17.1049 10.1999 15.4049C7.59995 13.7049 6.59995 10.4049 8.09995 8.10485C9.39995 6.10485 11.9999 5.40485 14.3999 6.30485" stroke="#D8D8D8" stroke-width="1.5" stroke-miterlimit="10" stroke-linecap="round" stroke-linejoin="round"/>
</g>
</g>
<defs>
<clipPath id="clip0_6533_83974">
<rect width="24" height="24" fill="white"/>
</clipPath>
<clipPath id="clip1_6533_83974">
<rect width="24" height="24" fill="white" transform="translate(0 0.00488281)"/>
</clipPath>
</defs>
</svg>
