<svg width="24" height="24" viewBox="0 0 24 24" fill="none" xmlns="http://www.w3.org/2000/svg">
<path d="M14.2617 15.4385H9.26172" stroke="white" stroke-width="1.5" stroke-miterlimit="10" stroke-linecap="round" stroke-linejoin="round"/>
<path d="M11.7617 12.998V17.998" stroke="white" stroke-width="1.5" stroke-miterlimit="10" stroke-linecap="round" stroke-linejoin="round"/>
<path fill-rule="evenodd" clip-rule="evenodd" d="M9.45807 2.92795C8.81723 3.217 8.21594 3.92329 7.57938 5.39566C7.56992 5.41752 7.55944 5.43891 7.54796 5.45976C7.54705 5.46228 7.54593 5.46541 7.54459 5.46928L7.53247 5.5052C7.5253 5.5267 7.51716 5.54787 7.50808 5.56864L7.44287 5.71768L7.40287 5.8177L6.23594 8.60473C6.44779 8.58051 6.66305 8.56803 6.88096 8.56803H9.23747L11.6514 2.96609C10.6447 2.67162 9.96973 2.69718 9.45807 2.92795ZM8.84135 1.5606C10.0256 1.02645 11.3812 1.22543 12.9289 1.81753C13.1195 1.89044 13.2722 2.03786 13.3517 2.22578C13.4312 2.4137 13.4307 2.62591 13.3503 2.81346L13.3203 2.88346L10.4197 9.61482C10.3012 9.88986 10.0304 10.068 9.73096 10.068H6.88096C6.30451 10.068 5.75382 10.1866 5.25357 10.3986C4.97277 10.5176 4.64788 10.4547 4.43177 10.2395C4.21566 10.0243 4.15137 9.6997 4.26914 9.41839L6.01683 5.24392L6.0546 5.14948C6.05756 5.14208 6.06064 5.13472 6.06384 5.12741L6.11982 4.99947C6.13687 4.94852 6.16859 4.85933 6.21685 4.76742C6.88722 3.22648 7.67797 2.08532 8.84135 1.5606Z" fill="white"/>
<path fill-rule="evenodd" clip-rule="evenodd" d="M11.9711 2.22278C12.1248 1.86425 12.5276 1.68335 12.8976 1.8067C13.0212 1.84789 13.192 1.92161 13.2974 1.96713C13.3341 1.98297 13.3629 1.9954 13.379 2.00186L13.3914 2.00682L15.5996 2.93617C16.8614 3.45953 17.8604 4.04687 18.4996 4.8316C18.6126 4.96753 18.7196 5.11144 18.8166 5.28662C18.9182 5.44782 19.0143 5.63323 19.0785 5.84637C19.1218 5.95053 19.1561 6.054 19.1817 6.15133C19.5226 7.23908 19.2832 8.46625 18.7461 9.79862C18.6001 10.1608 18.2006 10.3504 17.8277 10.2344C17.4628 10.1208 17.0598 10.0682 16.6405 10.0682H9.73047C9.4781 10.0682 9.24265 9.94129 9.10393 9.73046C8.96521 9.51964 8.94183 9.25318 9.0417 9.02142L11.9417 2.29142L11.9711 2.22278ZM13.057 3.49362L10.8703 8.56821H16.6405C16.9488 8.56821 17.2625 8.59013 17.5744 8.63984C17.8738 7.72515 17.9029 7.0744 17.7465 6.58772C17.7414 6.57201 17.7369 6.55613 17.7329 6.54012C17.7231 6.50088 17.707 6.45203 17.6851 6.40282C17.6691 6.36679 17.656 6.32956 17.6458 6.29146C17.6322 6.24032 17.6032 6.17268 17.5396 6.07378C17.5291 6.0575 17.5193 6.04083 17.5101 6.02379C17.4717 5.95239 17.4246 5.88472 17.3443 5.78835L17.3383 5.78119C16.9377 5.28815 16.2186 4.81665 15.0232 4.32102L15.0196 4.31951L13.057 3.49362Z" fill="white"/>
<path fill-rule="evenodd" clip-rule="evenodd" d="M5.26442 10.3989C3.7908 11.036 2.76172 12.501 2.76172 14.1984V16.1484C2.76172 16.3478 2.77841 16.5543 2.80542 16.7614C2.80748 16.7772 2.80904 16.793 2.81009 16.8089C2.90708 18.2776 3.34015 19.3036 4.0233 19.9868C4.70644 20.6699 5.73243 21.103 7.20114 21.2C7.21705 21.201 7.23292 21.2026 7.24872 21.2047C7.45578 21.2317 7.66229 21.2484 7.86172 21.2484H15.6617C17.4018 21.2484 18.6075 20.8344 19.3963 20.1246C20.1782 19.421 20.6646 18.3234 20.7528 16.7089C20.7629 16.5066 20.7717 16.3259 20.7717 16.1484V14.1984C20.7717 12.3307 19.5297 10.7545 17.8455 10.2365C17.4772 10.1281 17.0702 10.0684 16.6517 10.0684H6.89172C6.31908 10.0684 5.77821 10.1854 5.26442 10.3989ZM4.68326 9.01605C5.3682 8.73066 6.10593 8.56836 6.89172 8.56836H16.6517C17.2119 8.56836 17.7636 8.64822 18.2742 8.7991L18.2815 8.80126L18.2815 8.80129C20.5755 9.50448 22.2717 11.6474 22.2717 14.1984V16.1484C22.2717 16.3672 22.2609 16.583 22.2512 16.7778L22.2508 16.7858L22.2506 16.7891C22.1485 18.6639 21.565 20.1909 20.3997 21.2396C19.2409 22.2823 17.6216 22.7484 15.6617 22.7484H7.86172C7.58995 22.7484 7.32483 22.7265 7.07859 22.6951C5.37794 22.5789 3.9723 22.0571 2.96264 21.0474C1.95297 20.0378 1.4312 18.6321 1.31494 16.9315C1.28359 16.6853 1.26172 16.4201 1.26172 16.1484V14.1984C1.26172 11.8773 2.67069 9.88348 4.67485 9.01962L4.68324 9.016L4.68326 9.01605Z" fill="white"/>
<path fill-rule="evenodd" clip-rule="evenodd" d="M7.29109 5.05393C7.46622 5.26855 7.50879 5.56222 7.40182 5.81773L5.65182 9.99773C5.57681 10.1769 5.43523 10.32 5.25687 10.3968C3.78103 11.033 2.75 12.4992 2.75 14.1981C2.75 14.6123 2.41421 14.9481 2 14.9481C1.58579 14.9481 1.25 14.6123 1.25 14.1981V11.2681C1.25 8.06392 3.52924 5.39037 6.56502 4.79224C6.8368 4.7387 7.11596 4.83931 7.29109 5.05393ZM2.8472 10.2711C3.28938 9.81665 3.80734 9.43633 4.38028 9.1507L5.35814 6.81501C4.0781 7.53242 3.14089 8.78623 2.8472 10.2711Z" fill="white"/>
<path fill-rule="evenodd" clip-rule="evenodd" d="M17.8617 5.56396C18.0927 5.33591 18.4441 5.28234 18.7326 5.43121C20.8366 6.51715 22.2686 8.74109 22.2686 11.2677V14.1977C22.2686 14.6119 21.9328 14.9477 21.5186 14.9477C21.1044 14.9477 20.7686 14.6119 20.7686 14.1977C20.7686 12.3355 19.5322 10.7528 17.8431 10.246C17.6415 10.1856 17.4745 10.0431 17.3831 9.85351C17.2916 9.6639 17.2841 9.44459 17.3622 9.24913C17.8587 8.00799 17.9387 7.18007 17.7591 6.5693C17.7543 6.55314 17.7501 6.53682 17.7465 6.52037C17.7373 6.47908 17.7257 6.44888 17.7178 6.43309C17.5726 6.14276 17.6307 5.792 17.8617 5.56396ZM20.6696 10.2655C20.473 9.28239 19.9933 8.39816 19.3204 7.70954C19.2742 8.15156 19.1687 8.61154 19.0144 9.09067C19.6362 9.37946 20.1964 9.7797 20.6696 10.2655Z" fill="white"/>
</svg>
